<svg width="1280" height="960" viewBox="0 0 1280 960" fill="none" xmlns="http://www.w3.org/2000/svg">
<rect width="1280" height="960" fill="white"/>
<path d="M569.456 334.736V351.38H549.62V389H529.328V351.38H464.12V336.332L509.948 234.188L527.504 241.484L486.236 334.736H529.556L531.38 293.696H549.62V334.736H569.456ZM817.94 334.736V351.38H798.104V389H777.812V351.38H712.604V336.332L758.432 234.188L775.988 241.484L734.72 334.736H778.04L779.864 293.696H798.104V334.736H817.94Z" fill="#F8BC48"/>
<path d="M639.96 234.188C656.832 234.188 669.524 240.952 678.036 254.48C686.7 267.856 691.032 287.312 691.032 312.848C691.032 338.384 686.7 357.916 678.036 371.444C669.524 384.972 656.832 391.736 639.96 391.736C623.088 391.736 610.32 384.972 601.656 371.444C593.144 357.916 588.888 338.384 588.888 312.848C588.888 287.312 593.144 267.856 601.656 254.48C610.32 240.952 623.088 234.188 639.96 234.188ZM639.96 250.832C630.08 250.832 622.708 255.696 617.844 265.424C613.132 275.152 610.776 290.96 610.776 312.848C610.776 334.736 613.132 350.62 617.844 360.5C622.708 370.228 630.08 375.092 639.96 375.092C649.688 375.092 656.984 370.228 661.848 360.5C666.712 350.62 669.144 334.736 669.144 312.848C669.144 291.112 666.712 275.38 661.848 265.652C656.984 255.772 649.688 250.832 639.96 250.832Z" fill="#4DBD3A"/>
<path d="M264.56 496.072C263.696 498.248 262.784 499.96 261.824 501.208C260.864 502.456 259.712 503.416 258.368 504.088C257.024 504.76 255.328 505.256 253.28 505.576L252.608 502.264C254.848 501.816 256.512 501.16 257.6 500.296C258.688 499.4 259.584 497.944 260.288 495.928H258.608L248 471.928H252.752L261.632 493.144L269.552 471.928H274.16L264.56 496.072ZM291.813 505V483.304H281.445V505H277.029V479.704H296.229V505H291.813ZM314.557 479.128C316.061 479.128 317.437 479.352 318.685 479.8C319.933 480.216 321.133 480.904 322.285 481.864L320.173 484.648C319.277 484.008 318.397 483.544 317.533 483.256C316.701 482.936 315.773 482.776 314.749 482.776C312.701 482.776 311.101 483.592 309.949 485.224C308.829 486.856 308.269 489.272 308.269 492.472C308.269 495.672 308.829 498.04 309.949 499.576C311.069 501.08 312.669 501.832 314.749 501.832C315.741 501.832 316.653 501.688 317.485 501.4C318.317 501.08 319.245 500.584 320.269 499.912L322.285 502.792C319.981 504.648 317.405 505.576 314.557 505.576C311.133 505.576 308.429 504.424 306.445 502.12C304.493 499.816 303.517 496.632 303.517 492.568C303.517 489.88 303.965 487.528 304.861 485.512C305.757 483.496 307.021 481.928 308.653 480.808C310.317 479.688 312.285 479.128 314.557 479.128ZM331.863 471.928L331.383 493.96H327.495L326.967 471.928H331.863ZM329.463 498.904C330.423 498.904 331.223 499.224 331.863 499.864C332.503 500.504 332.823 501.288 332.823 502.216C332.823 503.144 332.503 503.944 331.863 504.616C331.223 505.256 330.423 505.576 329.463 505.576C328.535 505.576 327.751 505.256 327.111 504.616C326.471 503.944 326.151 503.144 326.151 502.216C326.151 501.288 326.471 500.504 327.111 499.864C327.751 499.224 328.535 498.904 329.463 498.904ZM359.024 505.576C356.944 505.576 354.992 505.208 353.168 504.472C351.344 503.704 349.776 502.584 348.464 501.112L351.152 498.52C353.2 500.664 355.744 501.736 358.784 501.736C361.056 501.736 362.816 501.176 364.064 500.056C365.312 498.936 365.936 497.4 365.936 495.448C365.936 493.496 365.312 492.008 364.064 490.984C362.848 489.928 361.04 489.4 358.64 489.4H355.472L356.096 485.656H358.688C360.608 485.656 362.128 485.176 363.248 484.216C364.4 483.224 364.976 481.88 364.976 480.184C364.976 478.68 364.512 477.464 363.584 476.536C362.688 475.576 361.296 475.096 359.408 475.096C356.784 475.096 354.224 476.12 351.728 478.168L349.328 475.432C352.4 472.712 355.872 471.352 359.744 471.352C362.944 471.352 365.408 472.152 367.136 473.752C368.864 475.32 369.728 477.336 369.728 479.8C369.728 481.816 369.152 483.464 368 484.744C366.848 485.992 365.264 486.84 363.248 487.288C365.424 487.512 367.232 488.328 368.672 489.736C370.112 491.144 370.832 493.064 370.832 495.496C370.832 497.48 370.32 499.24 369.296 500.776C368.304 502.28 366.912 503.464 365.12 504.328C363.328 505.16 361.296 505.576 359.024 505.576ZM394.616 499.096C394.616 500.12 394.792 500.888 395.144 501.4C395.496 501.88 396.024 502.248 396.728 502.504L395.72 505.576C394.408 505.416 393.352 505.048 392.552 504.472C391.752 503.896 391.16 503 390.776 501.784C389.08 504.312 386.568 505.576 383.24 505.576C380.744 505.576 378.776 504.872 377.336 503.464C375.896 502.056 375.176 500.216 375.176 497.944C375.176 495.256 376.136 493.192 378.056 491.752C380.008 490.312 382.76 489.592 386.312 489.592H390.2V487.72C390.2 485.928 389.768 484.648 388.904 483.88C388.04 483.112 386.712 482.728 384.92 482.728C383.064 482.728 380.792 483.176 378.104 484.072L377 480.856C380.136 479.704 383.048 479.128 385.736 479.128C388.712 479.128 390.936 479.864 392.408 481.336C393.88 482.776 394.616 484.84 394.616 487.528V499.096ZM384.248 502.264C386.776 502.264 388.76 500.952 390.2 498.328V492.52H386.888C382.216 492.52 379.88 494.248 379.88 497.704C379.88 499.208 380.248 500.344 380.984 501.112C381.72 501.88 382.808 502.264 384.248 502.264ZM418.469 505V483.304H408.101V505H403.685V479.704H422.885V505H418.469ZM443.614 479.128C446.846 479.128 449.214 480.28 450.718 482.584C452.222 484.888 452.974 488.136 452.974 492.328C452.974 496.296 452.11 499.496 450.382 501.928C448.654 504.36 446.206 505.576 443.038 505.576C440.222 505.576 438.014 504.616 436.414 502.696V514.696L431.998 515.224V479.704H435.79L436.126 483.112C437.054 481.832 438.174 480.856 439.486 480.184C440.798 479.48 442.174 479.128 443.614 479.128ZM441.982 501.976C446.142 501.976 448.222 498.76 448.222 492.328C448.222 485.864 446.318 482.632 442.51 482.632C441.262 482.632 440.126 483 439.102 483.736C438.078 484.472 437.182 485.416 436.414 486.568V498.904C437.054 499.896 437.854 500.664 438.814 501.208C439.774 501.72 440.83 501.976 441.982 501.976ZM477.069 499.096C477.069 500.12 477.245 500.888 477.597 501.4C477.949 501.88 478.477 502.248 479.181 502.504L478.173 505.576C476.861 505.416 475.805 505.048 475.005 504.472C474.205 503.896 473.613 503 473.229 501.784C471.533 504.312 469.021 505.576 465.693 505.576C463.197 505.576 461.229 504.872 459.789 503.464C458.349 502.056 457.629 500.216 457.629 497.944C457.629 495.256 458.589 493.192 460.509 491.752C462.461 490.312 465.213 489.592 468.765 489.592H472.653V487.72C472.653 485.928 472.221 484.648 471.357 483.88C470.493 483.112 469.165 482.728 467.373 482.728C465.517 482.728 463.245 483.176 460.557 484.072L459.453 480.856C462.589 479.704 465.501 479.128 468.189 479.128C471.165 479.128 473.389 479.864 474.861 481.336C476.333 482.776 477.069 484.84 477.069 487.528V499.096ZM466.701 502.264C469.229 502.264 471.213 500.952 472.653 498.328V492.52H469.341C464.669 492.52 462.333 494.248 462.333 497.704C462.333 499.208 462.701 500.344 463.437 501.112C464.173 501.88 465.261 502.264 466.701 502.264ZM515.226 479.704V505H486.138V479.704H490.458V501.448H498.57V479.704H502.794V501.448H510.906V479.704H515.226ZM544.021 505H539.653V493.576C539.653 491.656 539.717 489.832 539.845 488.104C539.973 486.376 540.085 485.24 540.181 484.696L529.573 505H524.341V479.704H528.709V491.128C528.709 492.824 528.645 494.584 528.517 496.408C528.389 498.2 528.293 499.352 528.229 499.864L538.693 479.704H544.021V505ZM566.467 491.272C570.755 491.688 572.899 493.672 572.899 497.224C572.899 499.88 571.923 501.848 569.971 503.128C568.051 504.376 565.475 505 562.243 505H553.123V480.04C556.099 479.432 558.867 479.128 561.427 479.128C564.563 479.128 567.043 479.72 568.867 480.904C570.691 482.088 571.603 483.784 571.603 485.992C571.603 487.432 571.171 488.6 570.307 489.496C569.443 490.392 568.163 490.984 566.467 491.272ZM561.475 482.536C560.131 482.536 558.819 482.632 557.539 482.824V489.976H562.291C563.827 489.976 565.011 489.688 565.843 489.112C566.675 488.536 567.091 487.56 567.091 486.184C567.091 484.904 566.627 483.976 565.699 483.4C564.771 482.824 563.363 482.536 561.475 482.536ZM562.243 501.544C564.131 501.544 565.603 501.224 566.659 500.584C567.715 499.944 568.243 498.792 568.243 497.128C568.243 495.752 567.795 494.76 566.899 494.152C566.003 493.544 564.483 493.24 562.339 493.24H557.539V501.544H562.243ZM596.788 499.096C596.788 500.12 596.964 500.888 597.316 501.4C597.668 501.88 598.196 502.248 598.9 502.504L597.892 505.576C596.58 505.416 595.524 505.048 594.724 504.472C593.924 503.896 593.332 503 592.948 501.784C591.252 504.312 588.74 505.576 585.412 505.576C582.916 505.576 580.948 504.872 579.508 503.464C578.068 502.056 577.348 500.216 577.348 497.944C577.348 495.256 578.308 493.192 580.228 491.752C582.18 490.312 584.932 489.592 588.484 489.592H592.372V487.72C592.372 485.928 591.94 484.648 591.076 483.88C590.212 483.112 588.884 482.728 587.092 482.728C585.236 482.728 582.964 483.176 580.276 484.072L579.172 480.856C582.308 479.704 585.22 479.128 587.908 479.128C590.884 479.128 593.108 479.864 594.58 481.336C596.052 482.776 596.788 484.84 596.788 487.528V499.096ZM586.42 502.264C588.948 502.264 590.932 500.952 592.372 498.328V492.52H589.06C584.388 492.52 582.052 494.248 582.052 497.704C582.052 499.208 582.42 500.344 583.156 501.112C583.892 501.88 584.98 502.264 586.42 502.264ZM624.961 491.608C624.961 492.344 624.929 493.096 624.865 493.864H608.737C608.929 496.648 609.633 498.696 610.849 500.008C612.065 501.32 613.633 501.976 615.553 501.976C616.769 501.976 617.889 501.8 618.913 501.448C619.937 501.096 621.009 500.536 622.129 499.768L624.049 502.408C621.361 504.52 618.417 505.576 615.217 505.576C611.697 505.576 608.945 504.424 606.961 502.12C605.009 499.816 604.033 496.648 604.033 492.616C604.033 489.992 604.449 487.672 605.281 485.656C606.145 483.608 607.361 482.008 608.929 480.856C610.529 479.704 612.401 479.128 614.545 479.128C617.905 479.128 620.481 480.232 622.273 482.44C624.065 484.648 624.961 487.704 624.961 491.608ZM620.593 490.312C620.593 487.816 620.097 485.912 619.105 484.6C618.113 483.288 616.625 482.632 614.641 482.632C611.025 482.632 609.057 485.288 608.737 490.6H620.593V490.312ZM656.781 505H652.461L651.309 493.048C651.181 491.8 651.101 490.424 651.069 488.92C651.037 487.384 651.021 485.736 651.021 483.976L645.261 502.216H641.085L635.709 484.024C635.709 488.248 635.645 491.24 635.517 493L634.605 505H630.333L632.589 479.704H638.301L643.245 497.8L648.669 479.704H654.477L656.781 505ZM681.256 499.096C681.256 500.12 681.432 500.888 681.784 501.4C682.136 501.88 682.664 502.248 683.368 502.504L682.36 505.576C681.048 505.416 679.992 505.048 679.192 504.472C678.392 503.896 677.8 503 677.416 501.784C675.72 504.312 673.208 505.576 669.88 505.576C667.384 505.576 665.416 504.872 663.976 503.464C662.536 502.056 661.816 500.216 661.816 497.944C661.816 495.256 662.776 493.192 664.696 491.752C666.648 490.312 669.4 489.592 672.952 489.592H676.84V487.72C676.84 485.928 676.408 484.648 675.544 483.88C674.68 483.112 673.352 482.728 671.56 482.728C669.704 482.728 667.432 483.176 664.744 484.072L663.64 480.856C666.776 479.704 669.688 479.128 672.376 479.128C675.352 479.128 677.576 479.864 679.048 481.336C680.52 482.776 681.256 484.84 681.256 487.528V499.096ZM670.888 502.264C673.416 502.264 675.4 500.952 676.84 498.328V492.52H673.528C668.856 492.52 666.52 494.248 666.52 497.704C666.52 499.208 666.888 500.344 667.624 501.112C668.36 501.88 669.448 502.264 670.888 502.264ZM707.654 479.704V505H703.238V495.304H697.718L692.39 505H687.446L693.494 494.296C690.518 492.888 689.03 490.6 689.03 487.432C689.03 484.936 689.926 483.032 691.718 481.72C693.51 480.376 696.022 479.704 699.254 479.704H707.654ZM703.238 491.944V483.112H699.158C697.334 483.112 695.958 483.464 695.03 484.168C694.134 484.84 693.686 485.928 693.686 487.432C693.686 489.032 694.102 490.184 694.934 490.888C695.798 491.592 697.174 491.944 699.062 491.944H703.238ZM738.682 479.128C740.186 479.128 741.562 479.352 742.81 479.8C744.058 480.216 745.258 480.904 746.41 481.864L744.298 484.648C743.402 484.008 742.522 483.544 741.658 483.256C740.826 482.936 739.898 482.776 738.874 482.776C736.826 482.776 735.226 483.592 734.074 485.224C732.954 486.856 732.394 489.272 732.394 492.472C732.394 495.672 732.954 498.04 734.074 499.576C735.194 501.08 736.794 501.832 738.874 501.832C739.866 501.832 740.778 501.688 741.61 501.4C742.442 501.08 743.37 500.584 744.394 499.912L746.41 502.792C744.106 504.648 741.53 505.576 738.682 505.576C735.258 505.576 732.554 504.424 730.57 502.12C728.618 499.816 727.642 496.632 727.642 492.568C727.642 489.88 728.09 487.528 728.986 485.512C729.882 483.496 731.146 481.928 732.778 480.808C734.442 479.688 736.41 479.128 738.682 479.128ZM769.476 479.704L768.948 483.304H760.836V505H756.42V483.304H748.068V479.704H769.476ZM785.66 479.128C788.892 479.128 791.26 480.28 792.764 482.584C794.268 484.888 795.02 488.136 795.02 492.328C795.02 496.296 794.156 499.496 792.428 501.928C790.7 504.36 788.252 505.576 785.084 505.576C782.268 505.576 780.06 504.616 778.46 502.696V514.696L774.044 515.224V479.704H777.836L778.172 483.112C779.1 481.832 780.22 480.856 781.532 480.184C782.844 479.48 784.22 479.128 785.66 479.128ZM784.028 501.976C788.188 501.976 790.268 498.76 790.268 492.328C790.268 485.864 788.364 482.632 784.556 482.632C783.308 482.632 782.172 483 781.148 483.736C780.124 484.472 779.228 485.416 778.46 486.568V498.904C779.1 499.896 779.9 500.664 780.86 501.208C781.82 501.72 782.876 501.976 784.028 501.976ZM819.116 499.096C819.116 500.12 819.292 500.888 819.644 501.4C819.996 501.88 820.524 502.248 821.228 502.504L820.22 505.576C818.908 505.416 817.852 505.048 817.052 504.472C816.252 503.896 815.66 503 815.276 501.784C813.58 504.312 811.068 505.576 807.74 505.576C805.244 505.576 803.276 504.872 801.836 503.464C800.396 502.056 799.676 500.216 799.676 497.944C799.676 495.256 800.636 493.192 802.556 491.752C804.508 490.312 807.26 489.592 810.812 489.592H814.7V487.72C814.7 485.928 814.268 484.648 813.404 483.88C812.54 483.112 811.212 482.728 809.42 482.728C807.564 482.728 805.292 483.176 802.604 484.072L801.5 480.856C804.636 479.704 807.548 479.128 810.236 479.128C813.212 479.128 815.436 479.864 816.908 481.336C818.38 482.776 819.116 484.84 819.116 487.528V499.096ZM808.748 502.264C811.276 502.264 813.26 500.952 814.7 498.328V492.52H811.388C806.716 492.52 804.38 494.248 804.38 497.704C804.38 499.208 804.748 500.344 805.484 501.112C806.22 501.88 807.308 502.264 808.748 502.264ZM843.113 505V493.864H832.601V505H828.185V479.704H832.601V490.312H843.113V479.704H847.529V505H843.113ZM876.318 505H871.95V493.576C871.95 491.656 872.014 489.832 872.142 488.104C872.27 486.376 872.382 485.24 872.478 484.696L861.87 505H856.638V479.704H861.006V491.128C861.006 492.824 860.942 494.584 860.814 496.408C860.686 498.2 860.59 499.352 860.526 499.864L870.99 479.704H876.318V505ZM904.379 501.448H908.219V512.2H904.619L903.899 505H885.419V479.704H889.835V501.4H899.963V479.704H904.379V501.448ZM930.538 499.096C930.538 500.12 930.714 500.888 931.066 501.4C931.418 501.88 931.946 502.248 932.65 502.504L931.642 505.576C930.33 505.416 929.274 505.048 928.474 504.472C927.674 503.896 927.082 503 926.698 501.784C925.002 504.312 922.49 505.576 919.162 505.576C916.666 505.576 914.698 504.872 913.258 503.464C911.818 502.056 911.098 500.216 911.098 497.944C911.098 495.256 912.058 493.192 913.978 491.752C915.93 490.312 918.682 489.592 922.234 489.592H926.122V487.72C926.122 485.928 925.69 484.648 924.826 483.88C923.962 483.112 922.634 482.728 920.842 482.728C918.986 482.728 916.714 483.176 914.026 484.072L912.922 480.856C916.058 479.704 918.97 479.128 921.658 479.128C924.634 479.128 926.858 479.864 928.33 481.336C929.802 482.776 930.538 484.84 930.538 487.528V499.096ZM920.17 502.264C922.698 502.264 924.682 500.952 926.122 498.328V492.52H922.81C918.138 492.52 915.802 494.248 915.802 497.704C915.802 499.208 916.17 500.344 916.906 501.112C917.642 501.88 918.73 502.264 920.17 502.264ZM444.446 569.904C445.406 569.904 446.206 570.224 446.846 570.864C447.486 571.504 447.806 572.288 447.806 573.216C447.806 574.144 447.486 574.944 446.846 575.616C446.206 576.256 445.406 576.576 444.446 576.576C443.518 576.576 442.734 576.256 442.094 575.616C441.454 574.944 441.134 574.144 441.134 573.216C441.134 572.288 441.454 571.504 442.094 570.864C442.734 570.224 443.518 569.904 444.446 569.904ZM477.866 542.928V576H473.306V546.816H459.626V576H455.066V542.928H477.866ZM498.832 550.128C502.064 550.128 504.432 551.28 505.936 553.584C507.44 555.888 508.192 559.136 508.192 563.328C508.192 567.296 507.328 570.496 505.6 572.928C503.872 575.36 501.424 576.576 498.256 576.576C495.44 576.576 493.232 575.616 491.632 573.696V585.696L487.216 586.224V550.704H491.008L491.344 554.112C492.272 552.832 493.392 551.856 494.704 551.184C496.016 550.48 497.392 550.128 498.832 550.128ZM497.2 572.976C501.36 572.976 503.44 569.76 503.44 563.328C503.44 556.864 501.536 553.632 497.728 553.632C496.48 553.632 495.344 554 494.32 554.736C493.296 555.472 492.4 556.416 491.632 557.568V569.904C492.272 570.896 493.072 571.664 494.032 572.208C494.992 572.72 496.048 572.976 497.2 572.976ZM525.22 550.128C528.772 550.128 531.524 551.312 533.476 553.68C535.46 556.048 536.452 559.264 536.452 563.328C536.452 565.952 536.004 568.272 535.108 570.288C534.212 572.272 532.916 573.824 531.22 574.944C529.524 576.032 527.508 576.576 525.172 576.576C521.62 576.576 518.852 575.392 516.868 573.024C514.884 570.656 513.892 567.44 513.892 563.376C513.892 560.752 514.34 558.448 515.236 556.464C516.132 554.448 517.428 552.896 519.124 551.808C520.82 550.688 522.852 550.128 525.22 550.128ZM525.22 553.68C520.836 553.68 518.644 556.912 518.644 563.376C518.644 569.808 520.82 573.024 525.172 573.024C529.524 573.024 531.7 569.792 531.7 563.328C531.7 556.896 529.54 553.68 525.22 553.68ZM557.092 562.272C561.38 562.688 563.524 564.672 563.524 568.224C563.524 570.88 562.548 572.848 560.596 574.128C558.676 575.376 556.1 576 552.868 576H543.748V551.04C546.724 550.432 549.492 550.128 552.052 550.128C555.188 550.128 557.668 550.72 559.492 551.904C561.316 553.088 562.228 554.784 562.228 556.992C562.228 558.432 561.796 559.6 560.932 560.496C560.068 561.392 558.788 561.984 557.092 562.272ZM552.1 553.536C550.756 553.536 549.444 553.632 548.164 553.824V560.976H552.916C554.452 560.976 555.636 560.688 556.468 560.112C557.3 559.536 557.716 558.56 557.716 557.184C557.716 555.904 557.252 554.976 556.324 554.4C555.396 553.824 553.988 553.536 552.1 553.536ZM552.868 572.544C554.756 572.544 556.228 572.224 557.284 571.584C558.34 570.944 558.868 569.792 558.868 568.128C558.868 566.752 558.42 565.76 557.524 565.152C556.628 564.544 555.108 564.24 552.964 564.24H548.164V572.544H552.868ZM589.758 562.608C589.758 563.344 589.726 564.096 589.662 564.864H573.534C573.726 567.648 574.43 569.696 575.646 571.008C576.862 572.32 578.43 572.976 580.35 572.976C581.566 572.976 582.686 572.8 583.71 572.448C584.734 572.096 585.806 571.536 586.926 570.768L588.846 573.408C586.158 575.52 583.214 576.576 580.014 576.576C576.494 576.576 573.742 575.424 571.758 573.12C569.806 570.816 568.83 567.648 568.83 563.616C568.83 560.992 569.246 558.672 570.078 556.656C570.942 554.608 572.158 553.008 573.726 551.856C575.326 550.704 577.198 550.128 579.342 550.128C582.702 550.128 585.278 551.232 587.07 553.44C588.862 555.648 589.758 558.704 589.758 562.608ZM585.39 561.312C585.39 558.816 584.894 556.912 583.902 555.6C582.91 554.288 581.422 553.632 579.438 553.632C575.822 553.632 573.854 556.288 573.534 561.6H585.39V561.312ZM608.426 550.128C611.658 550.128 614.026 551.28 615.53 553.584C617.034 555.888 617.786 559.136 617.786 563.328C617.786 567.296 616.922 570.496 615.194 572.928C613.466 575.36 611.018 576.576 607.85 576.576C605.034 576.576 602.826 575.616 601.226 573.696V585.696L596.81 586.224V550.704H600.602L600.938 554.112C601.866 552.832 602.986 551.856 604.298 551.184C605.61 550.48 606.986 550.128 608.426 550.128ZM606.794 572.976C610.954 572.976 613.034 569.76 613.034 563.328C613.034 556.864 611.13 553.632 607.322 553.632C606.074 553.632 604.938 554 603.914 554.736C602.89 555.472 601.994 556.416 601.226 557.568V569.904C601.866 570.896 602.666 571.664 603.626 572.208C604.586 572.72 605.642 572.976 606.794 572.976ZM633.086 558.864C636.862 558.864 639.598 559.6 641.294 561.072C642.99 562.544 643.838 564.64 643.838 567.36C643.838 570.208 642.878 572.368 640.958 573.84C639.07 575.28 636.718 576 633.902 576H625.31V550.704H629.726V558.864H633.086ZM633.518 572.544C635.31 572.544 636.686 572.144 637.646 571.344C638.638 570.544 639.134 569.216 639.134 567.36C639.134 565.6 638.67 564.304 637.742 563.472C636.846 562.64 635.278 562.224 633.038 562.224H629.726V572.544H633.518ZM665.507 550.704L664.979 554.304H656.867V576H652.451V554.304H644.099V550.704H665.507ZM687.961 562.608C687.961 563.344 687.929 564.096 687.865 564.864H671.737C671.929 567.648 672.633 569.696 673.849 571.008C675.065 572.32 676.633 572.976 678.553 572.976C679.769 572.976 680.889 572.8 681.913 572.448C682.937 572.096 684.009 571.536 685.129 570.768L687.049 573.408C684.361 575.52 681.417 576.576 678.217 576.576C674.697 576.576 671.945 575.424 669.961 573.12C668.009 570.816 667.033 567.648 667.033 563.616C667.033 560.992 667.449 558.672 668.281 556.656C669.145 554.608 670.361 553.008 671.929 551.856C673.529 550.704 675.401 550.128 677.545 550.128C680.905 550.128 683.481 551.232 685.273 553.44C687.065 555.648 687.961 558.704 687.961 562.608ZM683.593 561.312C683.593 558.816 683.097 556.912 682.105 555.6C681.113 554.288 679.625 553.632 677.641 553.632C674.025 553.632 672.057 556.288 671.737 561.6H683.593V561.312ZM722.5 576V554.304H712.132V576H707.716V550.704H726.916V576H722.5ZM747.645 550.128C750.877 550.128 753.245 551.28 754.749 553.584C756.253 555.888 757.005 559.136 757.005 563.328C757.005 567.296 756.141 570.496 754.413 572.928C752.685 575.36 750.237 576.576 747.069 576.576C744.253 576.576 742.045 575.616 740.445 573.696V585.696L736.029 586.224V550.704H739.821L740.157 554.112C741.085 552.832 742.205 551.856 743.517 551.184C744.829 550.48 746.205 550.128 747.645 550.128ZM746.013 572.976C750.173 572.976 752.253 569.76 752.253 563.328C752.253 556.864 750.349 553.632 746.541 553.632C745.293 553.632 744.157 554 743.133 554.736C742.109 555.472 741.213 556.416 740.445 557.568V569.904C741.085 570.896 741.885 571.664 742.845 572.208C743.805 572.72 744.861 572.976 746.013 572.976ZM781.1 570.096C781.1 571.12 781.276 571.888 781.628 572.4C781.98 572.88 782.508 573.248 783.212 573.504L782.204 576.576C780.892 576.416 779.836 576.048 779.036 575.472C778.236 574.896 777.644 574 777.26 572.784C775.564 575.312 773.052 576.576 769.724 576.576C767.228 576.576 765.26 575.872 763.82 574.464C762.38 573.056 761.66 571.216 761.66 568.944C761.66 566.256 762.62 564.192 764.54 562.752C766.492 561.312 769.244 560.592 772.796 560.592H776.684V558.72C776.684 556.928 776.252 555.648 775.388 554.88C774.524 554.112 773.196 553.728 771.404 553.728C769.548 553.728 767.276 554.176 764.588 555.072L763.484 551.856C766.62 550.704 769.532 550.128 772.22 550.128C775.196 550.128 777.42 550.864 778.892 552.336C780.364 553.776 781.1 555.84 781.1 558.528V570.096ZM770.732 573.264C773.26 573.264 775.244 571.952 776.684 569.328V563.52H773.372C768.7 563.52 766.364 565.248 766.364 568.704C766.364 570.208 766.732 571.344 767.468 572.112C768.204 572.88 769.292 573.264 770.732 573.264ZM803.513 562.272C807.801 562.688 809.945 564.672 809.945 568.224C809.945 570.88 808.969 572.848 807.017 574.128C805.097 575.376 802.521 576 799.289 576H790.169V551.04C793.145 550.432 795.913 550.128 798.473 550.128C801.609 550.128 804.089 550.72 805.913 551.904C807.737 553.088 808.649 554.784 808.649 556.992C808.649 558.432 808.217 559.6 807.353 560.496C806.489 561.392 805.209 561.984 803.513 562.272ZM798.521 553.536C797.177 553.536 795.865 553.632 794.585 553.824V560.976H799.337C800.873 560.976 802.057 560.688 802.889 560.112C803.721 559.536 804.137 558.56 804.137 557.184C804.137 555.904 803.673 554.976 802.745 554.4C801.817 553.824 800.409 553.536 798.521 553.536ZM799.289 572.544C801.177 572.544 802.649 572.224 803.705 571.584C804.761 570.944 805.289 569.792 805.289 568.128C805.289 566.752 804.841 565.76 803.945 565.152C803.049 564.544 801.529 564.24 799.385 564.24H794.585V572.544H799.289ZM836.943 576H832.575V564.576C832.575 562.656 832.639 560.832 832.767 559.104C832.895 557.376 833.007 556.24 833.103 555.696L822.495 576H817.263V550.704H821.631V562.128C821.631 563.824 821.567 565.584 821.439 567.408C821.311 569.2 821.215 570.352 821.151 570.864L831.615 550.704H836.943V576ZM864.572 550.704V576H860.156V554.304H852.332L851.612 562.752C851.324 566.176 850.956 568.736 850.508 570.432C850.092 572.128 849.42 573.44 848.492 574.368C847.596 575.264 846.22 576 844.364 576.576L843.26 573.072C844.348 572.688 845.116 572.192 845.564 571.584C846.012 570.976 846.348 570.048 846.572 568.8C846.796 567.552 847.036 565.376 847.292 562.272L848.3 550.704H864.572ZM881.477 558.864C885.253 558.864 887.989 559.6 889.685 561.072C891.381 562.544 892.229 564.64 892.229 567.36C892.229 570.208 891.269 572.368 889.349 573.84C887.461 575.28 885.109 576 882.293 576H873.701V550.704H878.117V558.864H881.477ZM881.909 572.544C883.701 572.544 885.077 572.144 886.037 571.344C887.029 570.544 887.525 569.216 887.525 567.36C887.525 565.6 887.061 564.304 886.133 563.472C885.237 562.64 883.669 562.224 881.429 562.224H878.117V572.544H881.909ZM913.379 576V564.864H902.867V576H898.451V550.704H902.867V561.312H913.379V550.704H917.795V576H913.379ZM936.408 550.128C939.96 550.128 942.712 551.312 944.664 553.68C946.648 556.048 947.64 559.264 947.64 563.328C947.64 565.952 947.192 568.272 946.296 570.288C945.4 572.272 944.104 573.824 942.408 574.944C940.712 576.032 938.696 576.576 936.36 576.576C932.808 576.576 930.04 575.392 928.056 573.024C926.072 570.656 925.08 567.44 925.08 563.376C925.08 560.752 925.528 558.448 926.424 556.464C927.32 554.448 928.616 552.896 930.312 551.808C932.008 550.688 934.04 550.128 936.408 550.128ZM936.408 553.68C932.024 553.68 929.832 556.912 929.832 563.376C929.832 569.808 932.008 573.024 936.36 573.024C940.712 573.024 942.888 569.792 942.888 563.328C942.888 556.896 940.728 553.68 936.408 553.68ZM964.151 550.128C965.655 550.128 967.031 550.352 968.279 550.8C969.527 551.216 970.727 551.904 971.879 552.864L969.767 555.648C968.871 555.008 967.991 554.544 967.127 554.256C966.295 553.936 965.367 553.776 964.343 553.776C962.295 553.776 960.695 554.592 959.543 556.224C958.423 557.856 957.863 560.272 957.863 563.472C957.863 566.672 958.423 569.04 959.543 570.576C960.663 572.08 962.263 572.832 964.343 572.832C965.335 572.832 966.247 572.688 967.079 572.4C967.911 572.08 968.839 571.584 969.863 570.912L971.879 573.792C969.575 575.648 966.999 576.576 964.151 576.576C960.727 576.576 958.023 575.424 956.039 573.12C954.087 570.816 953.111 567.632 953.111 563.568C953.111 560.88 953.559 558.528 954.455 556.512C955.351 554.496 956.615 552.928 958.247 551.808C959.911 550.688 961.879 550.128 964.151 550.128ZM994.945 550.704L994.417 554.304H986.305V576H981.889V554.304H973.537V550.704H994.945ZM1007.29 558.864C1011.07 558.864 1013.8 559.6 1015.5 561.072C1017.19 562.544 1018.04 564.64 1018.04 567.36C1018.04 570.208 1017.08 572.368 1015.16 573.84C1013.27 575.28 1010.92 576 1008.11 576H999.513V550.704H1003.93V558.864H1007.29ZM1007.72 572.544C1009.51 572.544 1010.89 572.144 1011.85 571.344C1012.84 570.544 1013.34 569.216 1013.34 567.36C1013.34 565.6 1012.87 564.304 1011.95 563.472C1011.05 562.64 1009.48 562.224 1007.24 562.224H1003.93V572.544H1007.72ZM409.806 640.904C410.766 640.904 411.566 641.224 412.206 641.864C412.846 642.504 413.166 643.288 413.166 644.216C413.166 645.144 412.846 645.944 412.206 646.616C411.566 647.256 410.766 647.576 409.806 647.576C408.878 647.576 408.094 647.256 407.454 646.616C406.814 645.944 406.494 645.144 406.494 644.216C406.494 643.288 406.814 642.504 407.454 641.864C408.094 641.224 408.878 640.904 409.806 640.904Z" fill="#F8BC48"/>
<path d="M967.238 505V493.864H956.726V505H952.31V479.704H956.726V490.312H967.238V479.704H971.654V505H967.238ZM999.867 491.608C999.867 492.344 999.835 493.096 999.771 493.864H983.643C983.835 496.648 984.539 498.696 985.755 500.008C986.971 501.32 988.539 501.976 990.459 501.976C991.675 501.976 992.795 501.8 993.819 501.448C994.843 501.096 995.915 500.536 997.035 499.768L998.955 502.408C996.267 504.52 993.323 505.576 990.123 505.576C986.603 505.576 983.851 504.424 981.867 502.12C979.915 499.816 978.939 496.648 978.939 492.616C978.939 489.992 979.355 487.672 980.187 485.656C981.051 483.608 982.267 482.008 983.835 480.856C985.435 479.704 987.307 479.128 989.451 479.128C992.811 479.128 995.387 480.232 997.179 482.44C998.971 484.648 999.867 487.704 999.867 491.608ZM995.499 490.312C995.499 487.816 995.003 485.912 994.011 484.6C993.019 483.288 991.531 482.632 989.547 482.632C985.931 482.632 983.963 485.288 983.643 490.6H995.499V490.312ZM267.488 576V564.864H256.976V576H252.56V550.704H256.976V561.312H267.488V550.704H271.904V576H267.488ZM298.053 570.096C298.053 571.12 298.229 571.888 298.581 572.4C298.933 572.88 299.461 573.248 300.165 573.504L299.157 576.576C297.845 576.416 296.789 576.048 295.989 575.472C295.189 574.896 294.597 574 294.213 572.784C292.517 575.312 290.005 576.576 286.677 576.576C284.181 576.576 282.213 575.872 280.773 574.464C279.333 573.056 278.613 571.216 278.613 568.944C278.613 566.256 279.573 564.192 281.493 562.752C283.445 561.312 286.197 560.592 289.749 560.592H293.637V558.72C293.637 556.928 293.205 555.648 292.341 554.88C291.477 554.112 290.149 553.728 288.357 553.728C286.501 553.728 284.229 554.176 281.541 555.072L280.437 551.856C283.573 550.704 286.485 550.128 289.173 550.128C292.149 550.128 294.373 550.864 295.845 552.336C297.317 553.776 298.053 555.84 298.053 558.528V570.096ZM287.685 573.264C290.213 573.264 292.197 571.952 293.637 569.328V563.52H290.325C285.653 563.52 283.317 565.248 283.317 568.704C283.317 570.208 283.685 571.344 284.421 572.112C285.157 572.88 286.245 573.264 287.685 573.264ZM326.802 576H322.435V564.576C322.435 562.656 322.499 560.832 322.627 559.104C322.755 557.376 322.867 556.24 322.963 555.696L312.355 576H307.123V550.704H311.491V562.128C311.491 563.824 311.427 565.584 311.299 567.408C311.171 569.2 311.075 570.352 311.011 570.864L321.475 550.704H326.802V576ZM316.867 545.136C314.915 545.136 313.267 544.64 311.923 543.648C310.611 542.624 309.859 541.248 309.667 539.52L312.595 538.896C312.915 539.92 313.411 540.656 314.083 541.104C314.787 541.552 315.715 541.776 316.867 541.776C318.019 541.776 318.963 541.552 319.699 541.104C320.435 540.624 320.963 539.888 321.283 538.896L324.211 539.52C324.019 541.248 323.235 542.624 321.859 543.648C320.515 544.64 318.851 545.136 316.867 545.136ZM356.208 572.448V583.2H352.608L351.888 576H335.664L334.944 583.2H331.344V572.448H333.12C333.888 571.936 334.496 571.36 334.944 570.72C335.392 570.048 335.792 568.896 336.144 567.264C336.528 565.632 336.832 563.248 337.056 560.112L337.728 550.704H353.568V572.448H356.208ZM349.152 554.208H341.712L341.328 559.536C341.104 562.512 340.848 564.8 340.56 566.4C340.272 568 339.856 569.232 339.312 570.096C338.8 570.96 338.048 571.744 337.056 572.448H349.152V554.208ZM381.68 562.608C381.68 563.344 381.648 564.096 381.584 564.864H365.456C365.648 567.648 366.352 569.696 367.568 571.008C368.784 572.32 370.352 572.976 372.272 572.976C373.488 572.976 374.608 572.8 375.632 572.448C376.656 572.096 377.728 571.536 378.848 570.768L380.768 573.408C378.08 575.52 375.136 576.576 371.936 576.576C368.416 576.576 365.664 575.424 363.68 573.12C361.728 570.816 360.752 567.648 360.752 563.616C360.752 560.992 361.168 558.672 362 556.656C362.864 554.608 364.08 553.008 365.648 551.856C367.248 550.704 369.12 550.128 371.264 550.128C374.624 550.128 377.2 551.232 378.992 553.44C380.784 555.648 381.68 558.704 381.68 562.608ZM377.312 561.312C377.312 558.816 376.816 556.912 375.824 555.6C374.832 554.288 373.344 553.632 371.36 553.632C367.744 553.632 365.776 556.288 365.456 561.6H377.312V561.312ZM403.66 576V564.864H393.148V576H388.732V550.704H393.148V561.312H403.66V550.704H408.076V576H403.66ZM434.225 570.096C434.225 571.12 434.401 571.888 434.753 572.4C435.105 572.88 435.633 573.248 436.337 573.504L435.329 576.576C434.017 576.416 432.961 576.048 432.161 575.472C431.361 574.896 430.769 574 430.385 572.784C428.689 575.312 426.177 576.576 422.849 576.576C420.353 576.576 418.385 575.872 416.945 574.464C415.505 573.056 414.785 571.216 414.785 568.944C414.785 566.256 415.745 564.192 417.665 562.752C419.617 561.312 422.369 560.592 425.921 560.592H429.809V558.72C429.809 556.928 429.377 555.648 428.513 554.88C427.649 554.112 426.321 553.728 424.529 553.728C422.673 553.728 420.401 554.176 417.713 555.072L416.609 551.856C419.745 550.704 422.657 550.128 425.345 550.128C428.321 550.128 430.545 550.864 432.017 552.336C433.489 553.776 434.225 555.84 434.225 558.528V570.096ZM423.857 573.264C426.385 573.264 428.369 571.952 429.809 569.328V563.52H426.497C421.825 563.52 419.489 565.248 419.489 568.704C419.489 570.208 419.857 571.344 420.593 572.112C421.329 572.88 422.417 573.264 423.857 573.264ZM269.6 641.096C269.6 642.12 269.776 642.888 270.128 643.4C270.48 643.88 271.008 644.248 271.712 644.504L270.704 647.576C269.392 647.416 268.336 647.048 267.536 646.472C266.736 645.896 266.144 645 265.76 643.784C264.064 646.312 261.552 647.576 258.224 647.576C255.728 647.576 253.76 646.872 252.32 645.464C250.88 644.056 250.16 642.216 250.16 639.944C250.16 637.256 251.12 635.192 253.04 633.752C254.992 632.312 257.744 631.592 261.296 631.592H265.184V629.72C265.184 627.928 264.752 626.648 263.888 625.88C263.024 625.112 261.696 624.728 259.904 624.728C258.048 624.728 255.776 625.176 253.088 626.072L251.984 622.856C255.12 621.704 258.032 621.128 260.72 621.128C263.696 621.128 265.92 621.864 267.392 623.336C268.864 624.776 269.6 626.84 269.6 629.528V641.096ZM259.232 644.264C261.76 644.264 263.744 642.952 265.184 640.328V634.52H261.872C257.2 634.52 254.864 636.248 254.864 639.704C254.864 641.208 255.232 642.344 255.968 643.112C256.704 643.88 257.792 644.264 259.232 644.264ZM298.973 643.448V654.2H295.373L294.653 647H278.429L277.709 654.2H274.109V643.448H275.885C276.653 642.936 277.261 642.36 277.709 641.72C278.157 641.048 278.557 639.896 278.909 638.264C279.293 636.632 279.597 634.248 279.821 631.112L280.493 621.704H296.333V643.448H298.973ZM291.917 625.208H284.477L284.093 630.536C283.869 633.512 283.613 635.8 283.325 637.4C283.037 639 282.621 640.232 282.077 641.096C281.565 641.96 280.813 642.744 279.821 643.448H291.917V625.208ZM317.051 621.128C320.283 621.128 322.651 622.28 324.155 624.584C325.659 626.888 326.411 630.136 326.411 634.328C326.411 638.296 325.547 641.496 323.819 643.928C322.091 646.36 319.643 647.576 316.475 647.576C313.659 647.576 311.451 646.616 309.851 644.696V656.696L305.435 657.224V621.704H309.227L309.563 625.112C310.491 623.832 311.611 622.856 312.923 622.184C314.235 621.48 315.611 621.128 317.051 621.128ZM315.419 643.976C319.579 643.976 321.659 640.76 321.659 634.328C321.659 627.864 319.755 624.632 315.947 624.632C314.699 624.632 313.563 625 312.539 625.736C311.515 626.472 310.619 627.416 309.851 628.568V640.904C310.491 641.896 311.291 642.664 312.251 643.208C313.211 643.72 314.267 643.976 315.419 643.976ZM353.039 633.608C353.039 634.344 353.007 635.096 352.943 635.864H336.815C337.007 638.648 337.711 640.696 338.927 642.008C340.143 643.32 341.711 643.976 343.631 643.976C344.847 643.976 345.967 643.8 346.991 643.448C348.015 643.096 349.087 642.536 350.207 641.768L352.127 644.408C349.439 646.52 346.495 647.576 343.295 647.576C339.775 647.576 337.023 646.424 335.039 644.12C333.087 641.816 332.111 638.648 332.111 634.616C332.111 631.992 332.527 629.672 333.359 627.656C334.223 625.608 335.439 624.008 337.007 622.856C338.607 621.704 340.479 621.128 342.623 621.128C345.983 621.128 348.559 622.232 350.351 624.44C352.143 626.648 353.039 629.704 353.039 633.608ZM348.671 632.312C348.671 629.816 348.175 627.912 347.183 626.6C346.191 625.288 344.703 624.632 342.719 624.632C339.103 624.632 337.135 627.288 336.815 632.6H348.671V632.312ZM369.307 621.128C370.811 621.128 372.187 621.352 373.435 621.8C374.683 622.216 375.883 622.904 377.035 623.864L374.923 626.648C374.027 626.008 373.147 625.544 372.283 625.256C371.451 624.936 370.523 624.776 369.499 624.776C367.451 624.776 365.851 625.592 364.699 627.224C363.579 628.856 363.019 631.272 363.019 634.472C363.019 637.672 363.579 640.04 364.699 641.576C365.819 643.08 367.419 643.832 369.499 643.832C370.491 643.832 371.403 643.688 372.235 643.4C373.067 643.08 373.995 642.584 375.019 641.912L377.035 644.792C374.731 646.648 372.155 647.576 369.307 647.576C365.883 647.576 363.179 646.424 361.195 644.12C359.243 641.816 358.267 638.632 358.267 634.568C358.267 631.88 358.715 629.528 359.611 627.512C360.507 625.496 361.771 623.928 363.403 622.808C365.067 621.688 367.035 621.128 369.307 621.128ZM399.584 641.096C399.584 642.12 399.76 642.888 400.112 643.4C400.464 643.88 400.992 644.248 401.696 644.504L400.688 647.576C399.376 647.416 398.32 647.048 397.52 646.472C396.72 645.896 396.128 645 395.744 643.784C394.048 646.312 391.536 647.576 388.208 647.576C385.712 647.576 383.744 646.872 382.304 645.464C380.864 644.056 380.144 642.216 380.144 639.944C380.144 637.256 381.104 635.192 383.024 633.752C384.976 632.312 387.728 631.592 391.28 631.592H395.168V629.72C395.168 627.928 394.736 626.648 393.872 625.88C393.008 625.112 391.68 624.728 389.888 624.728C388.032 624.728 385.76 625.176 383.072 626.072L381.968 622.856C385.104 621.704 388.016 621.128 390.704 621.128C393.68 621.128 395.904 621.864 397.376 623.336C398.848 624.776 399.584 626.84 399.584 629.528V641.096ZM389.216 644.264C391.744 644.264 393.728 642.952 395.168 640.328V634.52H391.856C387.184 634.52 384.848 636.248 384.848 639.704C384.848 641.208 385.216 642.344 385.952 643.112C386.688 643.88 387.776 644.264 389.216 644.264Z" fill="#4DBD3A"/>
<path d="M1104.36 191.209C1104.36 237.33 1067.05 274.701 1021.06 274.701C975.07 274.701 937.768 237.33 937.768 191.209C937.768 145.089 975.07 107.718 1021.06 107.718C1067.05 107.718 1104.36 145.089 1104.36 191.209Z" stroke="#4DBD3A" stroke-width="9.08571"/>
<path d="M1102.34 209.626C1112.35 164.026 1085.17 119.659 1036.82 109.39C989.002 99.2341 943.727 134.947 938.602 179.857" stroke="#F8BC48" stroke-width="9.08571"/>
<mask id="mask0_79_142" style="mask-type:alpha" maskUnits="userSpaceOnUse" x="926" y="24" width="217" height="217">
<circle cx="1034.07" cy="132.073" r="104.179" stroke="#F8BC48" stroke-width="7.78776"/>
</mask>
<g mask="url(#mask0_79_142)">
</g>
<path d="M1054.01 152.791L1056.67 160.824C1057.01 161.837 1055.68 162.553 1055.02 161.716L1052.84 159.274L1050.08 156.831L1047.23 154.482L1044.97 152.979L1044.39 152.575C1043.48 151.935 1042.88 150.939 1042.74 149.833L1042.21 145.557L1041.96 141.517L1041.79 137.007L1042.02 133.55C1042.03 133.35 1042.06 133.151 1042.1 132.955L1042.53 131.032C1042.59 130.757 1042.68 130.49 1042.8 130.235L1043.57 128.566C1043.72 128.245 1043.91 127.945 1044.14 127.675L1044.95 126.718C1045.19 126.439 1045.46 126.194 1045.76 125.99L1046.46 125.517C1046.8 125.288 1047.19 125.126 1047.59 125.042L1047.71 125.016C1048.11 124.932 1048.53 124.941 1048.92 125.044C1049.24 125.127 1049.55 125.269 1049.81 125.462L1050.01 125.601C1050.39 125.875 1050.71 126.215 1050.97 126.604L1051.91 128C1052.03 128.179 1052.12 128.375 1052.18 128.581C1052.34 129.106 1052.29 129.669 1052.04 130.158L1051.48 131.263C1051.38 131.459 1051.3 131.664 1051.24 131.875L1050.72 133.549C1050.63 133.849 1050.57 134.16 1050.55 134.473L1050.35 137.723C1050.34 137.997 1050.35 138.272 1050.39 138.543L1050.83 141.517L1051.59 144.148L1054.01 152.791Z" fill="#DCC496" stroke="#BFBFBF" stroke-width="0.255243"/>
<path d="M990.479 152.396L987.82 160.429C987.484 161.442 988.811 162.158 989.474 161.322L991.651 158.879L994.415 156.436L997.262 154.087L999.523 152.584L1000.1 152.18C1001.01 151.54 1001.61 150.544 1001.75 149.438L1002.29 145.162L1002.54 141.122L1002.71 136.613L1002.47 133.156C1002.46 132.955 1002.43 132.756 1002.39 132.56L1001.96 130.637C1001.9 130.363 1001.81 130.095 1001.69 129.84L1000.92 128.171C1000.77 127.85 1000.58 127.551 1000.35 127.28L999.543 126.323C999.308 126.044 999.034 125.799 998.731 125.595L998.029 125.122C997.688 124.893 997.307 124.732 996.905 124.647L996.784 124.622C996.382 124.537 995.967 124.547 995.569 124.65C995.249 124.732 994.947 124.874 994.679 125.068L994.486 125.207C994.107 125.48 993.779 125.82 993.519 126.209L992.586 127.605C992.466 127.784 992.374 127.98 992.313 128.187C992.157 128.711 992.207 129.275 992.453 129.763L993.01 130.868C993.109 131.065 993.191 131.269 993.256 131.48L993.773 133.154C993.866 133.455 993.922 133.765 993.941 134.079L994.139 137.328C994.155 137.602 994.143 137.877 994.103 138.148L993.661 141.122L992.908 143.753L990.479 152.396Z" fill="#DCC496" stroke="#BFBFBF" stroke-width="0.255243"/>
<path d="M1092.36 181.176C1093.2 178.292 1094.88 175.515 1096.27 173.601C1097.09 172.471 1097.02 170.869 1096 169.917C1095.62 169.56 1095.14 169.33 1094.62 169.257L1093.37 169.084C1092.65 168.983 1091.92 169.004 1091.2 169.146L1090.88 169.209C1090.35 169.315 1089.83 169.472 1089.33 169.679L1089.21 169.726C1088.11 170.177 1087.11 170.824 1086.24 171.637L1085.44 172.391L1083.67 174.564L1082.14 177.015C1081.48 178.086 1080.91 179.219 1080.46 180.398L1078.61 185.237L1075.91 195.533L1074.78 198.306C1074.35 199.352 1073.83 200.36 1073.24 201.318L1072.7 202.179C1072.08 203.161 1071.36 204.071 1070.55 204.894C1069.68 205.766 1068.71 206.533 1067.67 207.178L1066.48 207.91C1065.57 208.474 1064.61 208.962 1063.61 209.37L1057.51 211.874L1054.2 213.111C1052.37 213.794 1050.65 214.745 1049.1 215.934L1048.23 216.597L1045.53 219.242L1040.81 224.72L1036.34 231.144L1027.56 245.029C1025.06 249.287 1018.88 249.214 1016.48 244.898L1015.67 243.423L1010.43 234.355L1002.84 223.587L999.107 219.333C998.447 218.581 997.731 217.88 996.964 217.236L995.829 216.283C994.881 215.487 993.859 214.781 992.778 214.176L992.041 213.763L984.616 210.741L978.811 208.126C977.79 207.667 976.82 207.102 975.915 206.442C974.25 205.226 972.832 203.703 971.739 201.954L971.52 201.604C970.803 200.457 970.215 199.234 969.767 197.958L968.585 194.589L966.391 186.654L964.535 181.648L962.789 177.738C962.323 176.695 961.762 175.696 961.113 174.755L960.938 174.501C960.189 173.413 959.309 172.422 958.319 171.549L957.741 171.039C957.265 170.619 956.747 170.252 956.193 169.942L955.913 169.785C955.308 169.446 954.656 169.202 953.978 169.059C952.877 168.828 951.736 168.872 950.656 169.188L950.36 169.274L948.759 169.957C948.645 170.005 948.537 170.065 948.435 170.134C947.488 170.78 947.325 172.111 948.088 172.965L948.397 173.31C948.524 173.453 948.633 173.61 948.721 173.78L950.36 176.925L951.764 179.835C952.345 181.04 952.803 182.302 953.129 183.601L954.157 187.693L956.519 199.878L958.882 209.418L961.16 215.842L963.522 221.603L966.519 227.147C967.108 228.235 967.797 229.265 968.578 230.224L972.635 235.205L976.6 239.172L980.65 242.762L987.31 247.555C988.38 248.325 989.524 248.986 990.726 249.527L994.994 251.452L1001.07 253.813L1009 255.702L1017.69 256.741H1024.27C1025.82 256.741 1030.04 256.049 1031.95 255.702L1037.94 254.663L1042.5 253.813L1046.21 252.774L1052.62 250.035L1059.88 246.068L1065.11 242.195L1069.2 238.487C1070.01 237.749 1070.77 236.944 1071.45 236.08L1072.95 234.166L1076.65 229.35C1077.28 228.532 1077.84 227.666 1078.34 226.76L1081.14 221.603L1084.51 213.102L1087.55 202.334C1088.65 197.013 1091.15 185.332 1092.36 181.176Z" fill="#DCC496" stroke="#BFBFBF" stroke-width="0.255243"/>
<path d="M1077.08 180.606L1078.76 177.306C1079.34 176.169 1079.34 174.823 1078.75 173.692L1075.65 167.734L1072.21 159.784L1068.51 150.225L1062.66 133.993C1062.58 133.773 1062.48 133.561 1062.36 133.358L1060.74 130.546C1060.49 130.105 1060.14 129.727 1059.72 129.438L1059.45 129.254C1059.05 128.982 1058.58 128.836 1058.1 128.836C1057.6 128.836 1057.11 128.995 1056.7 129.291L1056.42 129.498C1056.08 129.748 1055.78 130.06 1055.55 130.416L1054.87 131.468C1054.66 131.794 1054.5 132.148 1054.39 132.52L1053.78 134.643C1053.68 134.997 1053.63 135.364 1053.63 135.733V138.688C1053.63 138.996 1053.67 139.303 1053.74 139.603L1055.48 146.913L1061.95 167.166L1064.22 176.725L1066.07 182.025L1067.58 189.029L1068.34 196.127V198.967V199.199C1068.34 200.408 1069.83 200.975 1070.64 200.072C1070.73 199.967 1070.8 199.847 1070.86 199.718L1072.04 196.979L1073.55 191.679L1075.15 185.527L1077.08 180.606Z" fill="#DCC496" stroke="#BFBFBF" stroke-width="0.255243"/>
<path d="M967.018 180.842L965.353 177.612C964.764 176.467 964.769 175.107 965.368 173.967L968.447 168.108L971.893 160.243L975.591 150.786L981.437 134.733C981.518 134.512 981.618 134.298 981.737 134.095L983.353 131.324C983.61 130.884 983.962 130.506 984.384 130.219L984.646 130.041C985.044 129.77 985.514 129.625 985.995 129.625C986.498 129.625 986.989 129.784 987.397 130.078L987.676 130.279C988.021 130.527 988.317 130.838 988.55 131.194L989.221 132.223C989.434 132.549 989.598 132.905 989.707 133.28L990.311 135.359C990.415 135.717 990.467 136.088 990.467 136.46V139.362C990.467 139.674 990.43 139.984 990.358 140.287L988.618 147.509L982.147 167.546L979.877 177.003L978.028 182.246L976.515 189.175L975.759 196.197V199.006V199.223C975.759 200.429 974.27 200.999 973.464 200.101C973.37 199.996 973.293 199.876 973.236 199.747L972.061 197.04L970.548 191.797L968.951 185.71L967.018 180.842Z" fill="#DCC496" stroke="#BFBFBF" stroke-width="0.255243"/>
<path d="M1020.42 234.24C1048.56 234.24 1072.97 229.863 1072.97 206.013C1072.97 197.913 1070.64 185.642 1066.72 179.705C1063.55 174.9 1059.26 170.662 1054.15 167.224C1045.37 161.319 1032.65 157.224 1020.42 157.224C1009.33 157.224 1000.63 160.792 992.265 165.743C992.01 165.894 991.758 166.046 991.507 166.2C986.712 169.15 982.57 172.778 979.291 176.911C974.074 183.486 970.035 196.263 970.035 204.7C970.035 227.842 992.283 234.24 1020.42 234.24Z" fill="#F8BC48"/>
<path d="M993.119 164.597C993.368 164.751 993.636 164.916 993.758 165.182C994.385 166.564 989.702 167.182 988 168.563C984.441 171.453 980.873 174.77 978.466 178.414C978.447 178.442 973.86 184.989 974.798 184.112C975.603 183.359 975.788 182.245 975.567 181.229L972.251 165.933L969.332 157.144C969.246 156.885 969.183 156.618 969.166 156.346C968.933 152.722 971.254 150.146 976.923 154.154L983.803 158.85L993.119 164.597Z" fill="#F8BC48"/>
<path d="M1050.4 164.048C1050.14 164.206 1049.86 164.379 1049.71 164.669C1048.96 166.163 1054.4 167.187 1056.1 168.563C1059.66 171.453 1063.23 174.77 1065.63 178.414C1065.65 178.442 1070.24 184.988 1069.3 184.112C1068.5 183.359 1068.31 182.245 1068.53 181.229L1071.85 165.933L1074.74 157.224C1074.84 156.912 1074.92 156.588 1074.94 156.256C1075.13 152.68 1072.8 150.179 1067.18 154.154L1060.3 158.85L1050.4 164.048Z" fill="#F8BC48"/>
<path d="M1024.45 207.98L1021.72 210.416L1019.75 208.807L1018.01 207.149L1016.21 205.038C1015.86 204.632 1015.62 204.13 1015.5 203.583C1015.1 201.662 1016.35 199.799 1018.11 199.701L1021.72 199.5L1024.93 199.754C1026.75 199.898 1027.98 201.899 1027.45 203.851C1027.34 204.226 1027.18 204.576 1026.96 204.884L1026.11 206.102C1025.62 206.797 1025.06 207.428 1024.45 207.98Z" fill="#F8BC48"/>
<path d="M1050.11 203.192C1054.02 201.777 1079.48 195.211 1095.43 197.848" stroke="#F4F4F4" stroke-width="1.97386" stroke-linecap="round"/>
<path d="M1049.7 212.196C1053.6 210.791 1071.44 216.264 1086.91 228.758" stroke="#F4F4F4" stroke-width="1.97386" stroke-linecap="round"/>
<path d="M1049.86 208.021C1053.76 206.604 1080.43 206.417 1095.69 213.698" stroke="#F4F4F4" stroke-width="1.97386" stroke-linecap="round"/>
<path d="M991.694 203.38C987.841 201.795 962.628 194.115 946.603 196.049" stroke="#F4F4F4" stroke-width="1.97386" stroke-linecap="round"/>
<path d="M991.782 212.395C987.933 210.82 969.916 215.506 954.014 227.309" stroke="#F4F4F4" stroke-width="1.97386" stroke-linecap="round"/>
<path d="M991.77 208.216C987.929 206.63 961.287 205.271 945.772 211.875" stroke="#F4F4F4" stroke-width="1.97386" stroke-linecap="round"/>
<path d="M1021.72 210V210C1021.05 209.002 1020.29 208.073 1019.44 207.225L1018.72 206.5L1017.26 205.042C1016.9 204.682 1016.58 204.286 1016.29 203.862L1015.91 203.283C1015.78 203.095 1015.68 202.892 1015.61 202.678V202.678C1015.36 201.935 1015.47 201.119 1015.91 200.467L1015.93 200.435C1016.12 200.148 1016.37 199.901 1016.65 199.71L1016.81 199.602C1017.4 199.21 1018.1 199 1018.8 199H1021.72H1023.93C1024.45 199 1024.97 199.1 1025.45 199.293L1026.13 199.565C1026.82 199.841 1027.35 200.406 1027.59 201.111V201.111C1027.67 201.369 1027.72 201.638 1027.72 201.91V202.054C1027.72 202.673 1027.55 203.28 1027.23 203.811L1026.68 204.731C1026.37 205.242 1026.01 205.713 1025.58 206.134L1024.22 207.5L1021.72 210ZM1021.72 210V210.5M1021.72 210.5L1020.65 213.339C1020.36 214.111 1020 214.856 1019.58 215.563L1019.13 216.318C1018.86 216.771 1018.53 217.189 1018.16 217.562V217.562C1017.54 218.181 1016.8 218.668 1015.99 218.992L1015.93 219.016C1015.13 219.336 1014.28 219.5 1013.41 219.5H1012.53C1011.99 219.5 1011.45 219.462 1010.92 219.386L1010.42 219.314C1008.96 219.105 1007.53 218.723 1006.16 218.176L1005.72 218L1005.64 217.973C1004.71 217.664 1003.71 217.626 1002.77 217.863L1002.66 217.891C1002.37 217.963 1002.08 218.068 1001.81 218.202L1001.73 218.242C1001.39 218.413 1001.08 218.638 1000.81 218.907V218.907C1000.42 219.297 1000.13 219.772 999.953 220.295L999.718 221M1021.72 210.5L1022.78 213.339C1023.07 214.111 1023.43 214.856 1023.86 215.563L1024.28 216.27C1024.57 216.755 1024.92 217.202 1025.32 217.602L1025.42 217.705C1025.95 218.231 1026.57 218.656 1027.24 218.961V218.961C1028.03 219.316 1028.89 219.5 1029.76 219.5H1031.72L1034.15 219.196C1035.19 219.066 1036.2 218.761 1037.13 218.293V218.293C1037.52 218.098 1037.93 217.931 1038.34 217.793L1039.22 217.5L1039.96 217.316C1040.77 217.112 1041.63 217.206 1042.38 217.582V217.582C1042.93 217.856 1043.4 218.268 1043.74 218.777L1043.88 218.997C1044.11 219.331 1044.28 219.693 1044.41 220.073L1044.72 221" stroke="white" stroke-width="3" stroke-linecap="round"/>
<path d="M1008.63 187.766C1008.63 191.147 1005.18 194.762 1000.93 194.762C996.677 194.762 993.23 191.147 993.23 187.766C993.23 184.385 996.677 180.551 1000.93 180.551C1005.18 180.551 1008.63 184.385 1008.63 187.766Z" fill="#F4F4F4"/>
<path d="M1031.3 187.582C1031.3 191.02 1034.79 194.696 1039.1 194.696C1043.41 194.696 1046.9 191.02 1046.9 187.582C1046.9 184.144 1043.41 180.246 1039.1 180.246C1034.79 180.246 1031.3 184.144 1031.3 187.582Z" fill="#F4F4F4"/>
<ellipse cx="1001.72" cy="187.064" rx="4.53987" ry="5.32941" fill="#F8BC48"/>
<ellipse rx="4.59941" ry="5.55795" transform="matrix(-1 0 0 1 1038.3 186.915)" fill="#F8BC48"/>
<path d="M1233 815L1232 124" stroke="#F8BC48" stroke-width="6.2914" stroke-linecap="round"/>
<path d="M48 815L47 124" stroke="#F8BC48" stroke-width="6.2914" stroke-linecap="round"/>
</svg>
