<svg width="82" height="82" viewBox="0 0 82 82" fill="none" xmlns="http://www.w3.org/2000/svg">
<path d="M79.1357 41.1894C79.1357 62.2676 62.0876 79.3473 41.0678 79.3473C20.048 79.3473 3 62.2676 3 41.1894C3 20.1106 20.048 3.03113 41.0678 3.03113C62.0876 3.03113 79.1357 20.1106 79.1357 41.1894Z" stroke="#4DBD3A" stroke-width="4.15245"/>
<path d="M78.213 49.6065C82.7911 28.7654 70.3662 8.48857 48.2687 3.79518C26.4153 -0.846388 5.72348 15.4754 3.38078 36.0007" stroke="#F8BC48" stroke-width="4.15245"/>
<path d="M56.1279 23.6307L57.3431 27.302C57.4962 27.765 56.8897 28.0922 56.5867 27.7101L55.5918 26.5936L54.329 25.4771L53.0278 24.4035L51.9945 23.7166L51.7308 23.532C51.3135 23.2395 51.0397 22.7843 50.9762 22.2788L50.7312 20.3245L50.6165 18.4781L50.5402 16.4174L50.6458 14.8374C50.6517 14.7455 50.665 14.6546 50.6846 14.565L50.8807 13.6861C50.9086 13.5609 50.9501 13.4384 51.0041 13.3219L51.3565 12.5591C51.4241 12.4124 51.5114 12.2753 51.6156 12.1519L51.9853 11.7145C52.0927 11.587 52.2175 11.475 52.356 11.3818L52.6773 11.1656C52.8327 11.061 53.0072 10.9869 53.191 10.9485L53.2458 10.9371C53.4295 10.8983 53.6197 10.9028 53.8016 10.9499C53.9478 10.9874 54.0854 11.0523 54.2083 11.1409L54.2961 11.204C54.4697 11.3292 54.6192 11.4846 54.7385 11.6624L55.1649 12.3004C55.2197 12.3822 55.2618 12.4718 55.2897 12.5664C55.361 12.8059 55.3376 13.0637 55.2252 13.2867L54.9711 13.7917C54.9259 13.8818 54.8879 13.975 54.8582 14.0714L54.6224 14.8365C54.5799 14.9736 54.5543 15.1157 54.5456 15.2592L54.4551 16.7441C54.4474 16.8694 54.4528 16.995 54.4716 17.1189L54.6731 18.4781L55.0177 19.6806L56.1279 23.6307Z" fill="#DCC496" stroke="#BFBFBF" stroke-width="0.116654"/>
<path d="M27.0905 23.4501L25.8752 27.1215C25.7218 27.5845 26.3284 27.9117 26.6312 27.5296L27.6263 26.4131L28.8893 25.2965L30.1905 24.2234L31.2239 23.5361L31.4875 23.3514C31.9045 23.0589 32.1785 22.6037 32.2418 22.0987L32.4868 20.144L32.6016 18.2976L32.6781 16.2368L32.5725 14.6569C32.5664 14.565 32.5533 14.4741 32.5333 14.3845L32.3375 13.5061C32.3095 13.3804 32.2682 13.2579 32.2142 13.1413L31.8618 12.3786C31.794 12.2319 31.7068 12.0952 31.6026 11.9718L31.233 11.534C31.1254 11.4065 31.0005 11.2945 30.8621 11.2013L30.541 10.9851C30.3853 10.8804 30.2109 10.8068 30.0273 10.768L29.9722 10.7566C29.7885 10.7177 29.5984 10.7223 29.4168 10.7694C29.2705 10.8073 29.1326 10.8717 29.01 10.9604L28.922 11.0239C28.7485 11.1491 28.5988 11.3041 28.4799 11.4819L28.0532 12.1203C27.9986 12.2017 27.9565 12.2913 27.9285 12.3859C27.8573 12.6254 27.8803 12.8831 27.9927 13.1062L28.2471 13.6112C28.2924 13.7012 28.3301 13.7949 28.3598 13.8909L28.5959 14.6559C28.6382 14.7935 28.6641 14.9352 28.6728 15.0787L28.763 16.5641C28.7706 16.6888 28.7652 16.8145 28.7467 16.9384L28.5448 18.2976L28.2004 19.5L27.0905 23.4501Z" fill="#DCC496" stroke="#BFBFBF" stroke-width="0.116654"/>
<path d="M73.6536 36.6036C74.0389 35.2855 74.8054 34.0163 75.4402 33.1415C75.8149 32.6251 75.7843 31.8929 75.3172 31.4578C75.1427 31.2947 74.9215 31.1896 74.6847 31.1567L74.1166 31.0771C73.7862 31.031 73.4503 31.0406 73.1226 31.1059L72.9782 31.1347C72.735 31.1832 72.4969 31.2549 72.2675 31.3491L72.2145 31.3705C71.7126 31.5767 71.2529 31.8728 70.858 32.2439L70.4915 32.5885L69.6816 33.5817L68.9837 34.7018C68.6784 35.1913 68.4211 35.7091 68.215 36.248L67.3681 38.46L66.1341 43.1651L65.6172 44.4325C65.4225 44.911 65.1867 45.3712 64.9129 45.8091L64.667 46.2026C64.3864 46.6514 64.0564 47.0677 63.6835 47.4434C63.2877 47.842 62.8462 48.1925 62.3682 48.4873L61.8261 48.8218C61.4084 49.0796 60.9701 49.3026 60.5158 49.4896L57.7279 50.634L56.2133 51.1988C55.3765 51.511 54.5909 51.9461 53.882 52.489L53.4858 52.7921L52.2518 54.0009L50.0928 56.505L48.0489 59.4405L44.0385 65.7864C42.8964 67.7324 40.0715 67.699 38.9758 65.7265L38.6013 65.0524L36.2105 60.908L32.74 55.9867L31.0338 54.0425C30.7321 53.6988 30.4046 53.3784 30.0542 53.0841L29.5357 52.649C29.1021 52.2848 28.6352 51.9621 28.1411 51.6856L27.8041 51.4973L24.4107 50.1157L21.7576 48.921C21.2911 48.7108 20.8476 48.4525 20.4344 48.1509C19.6732 47.5952 19.0253 46.8991 18.5257 46.0997L18.4255 45.9398C18.0978 45.4156 17.8291 44.8571 17.6245 44.2734L17.0841 42.7337L16.0815 39.1072L15.2331 36.8193L14.435 35.0323C14.222 34.5556 13.9658 34.099 13.6694 33.669L13.5892 33.5529C13.2468 33.0561 12.8449 32.6027 12.3923 32.2037L12.128 31.9706C11.9107 31.7787 11.6737 31.6109 11.4208 31.4693L11.2926 31.3975C11.0163 31.243 10.7181 31.1311 10.4081 31.0662C9.905 30.9606 9.38353 30.9807 8.89003 31.1247L8.75484 31.164L8.02304 31.4761C7.97117 31.4985 7.92158 31.5255 7.87496 31.5575C7.4422 31.8523 7.36775 32.4606 7.7166 32.8509L7.85741 33.0085C7.91559 33.0739 7.96545 33.1461 8.00581 33.2233L8.75484 34.6607L9.39624 35.9907C9.66205 36.5419 9.87109 37.1186 10.0202 37.7119L10.4901 39.5825L11.5698 45.1509L12.6495 49.5115L13.6907 52.447L14.7704 55.0804L16.1401 57.6137C16.4089 58.111 16.7239 58.5817 17.0809 59.02L18.935 61.2965L20.7474 63.11L22.5984 64.7503L25.642 66.9408C26.131 67.2927 26.6541 67.5948 27.2033 67.8426L29.1538 68.7219L31.9302 69.8009L35.555 70.6647L39.5268 71.1396H42.5346C43.2442 71.1396 45.1696 70.8228 46.0435 70.6647L48.7815 70.1899L50.8638 69.8009L52.5603 69.3261L55.4912 68.0743L58.8074 66.2612L61.1982 64.4911L63.0679 62.7969C63.4404 62.4592 63.7841 62.0913 64.0953 61.6964L64.7845 60.8216L66.4741 58.6206C66.7612 58.2467 67.0185 57.8509 67.2438 57.4369L68.5248 55.0804L70.0673 51.1947L71.4553 46.2734C71.9567 43.8416 73.0984 38.503 73.6536 36.6036Z" fill="#DCC496" stroke="#BFBFBF" stroke-width="0.116654"/>
<path d="M66.6697 36.343L67.4389 34.8348C67.7036 34.3156 67.7008 33.7004 67.4321 33.1831L66.0166 30.4601L64.4417 26.8267L62.7516 22.4579L60.0789 15.0394C60.0428 14.9389 59.9975 14.842 59.9441 14.7492L59.2023 13.464C59.0862 13.2629 58.9263 13.0897 58.7348 12.9581L58.6123 12.874C58.4313 12.7492 58.2165 12.6825 57.9967 12.6825C57.7668 12.6825 57.5428 12.7552 57.3568 12.8909L57.227 12.9855C57.0703 13.0998 56.9359 13.2419 56.8303 13.4051L56.52 13.8859C56.424 14.0344 56.3504 14.1962 56.3015 14.3662L56.0227 15.3365C55.9761 15.4983 55.9528 15.666 55.9528 15.8346V17.1852C55.9528 17.3259 55.9693 17.4662 56.0017 17.6033L56.7979 20.9442L59.7553 30.201L60.7928 34.5697L61.6378 36.992L62.3293 40.1926L62.6748 43.437V44.7346V44.841C62.6748 45.3931 63.3576 45.6527 63.7246 45.2396C63.7671 45.1916 63.8019 45.1367 63.827 45.0778L64.3649 43.826L65.0564 41.4037L65.7863 38.592L66.6697 36.343Z" fill="#DCC496" stroke="#BFBFBF" stroke-width="0.116654"/>
<path d="M16.3679 36.4509L15.6072 34.9747C15.3377 34.4514 15.3402 33.8298 15.6139 33.3088L17.021 30.631L18.5959 27.0365L20.286 22.7143L22.9579 15.3776C22.9948 15.2766 23.0406 15.1788 23.0949 15.086L23.8336 13.82C23.9511 13.6185 24.112 13.4457 24.3048 13.3146L24.4244 13.2332C24.6062 13.1094 24.8211 13.0431 25.0411 13.0431C25.2711 13.0431 25.4953 13.1158 25.6819 13.2501L25.8092 13.342C25.967 13.4558 26.1025 13.5975 26.2088 13.7602L26.5156 14.2305C26.613 14.3795 26.6878 14.5422 26.7375 14.7135L27.0135 15.6637C27.0609 15.8273 27.085 15.9969 27.085 16.1669V17.4937C27.085 17.6358 27.0682 17.7775 27.0349 17.916L26.24 21.2166L23.2822 30.3742L22.2451 34.6963L21.4 37.0925L20.7086 40.2593L20.3628 43.4686V44.7524V44.8516C20.3628 45.4027 19.6825 45.6632 19.3141 45.2533C19.2709 45.2048 19.2358 45.1505 19.21 45.091L18.6727 43.8539L17.9813 41.4576L17.2514 38.6761L16.3679 36.4509Z" fill="#DCC496" stroke="#BFBFBF" stroke-width="0.116654"/>
<path d="M40.7741 60.8555C53.6334 60.8555 64.7914 58.855 64.7914 47.9548C64.7914 44.2529 63.7269 38.6451 61.9345 35.9313C60.4838 33.7352 58.5259 31.7983 56.1905 30.2275C52.1773 27.5283 46.362 25.6567 40.7741 25.6567C35.7042 25.6567 31.7298 27.2874 27.9064 29.5502C27.7902 29.6192 27.6747 29.6887 27.5601 29.759C25.3686 31.1073 23.4754 32.7654 21.9768 34.6543C19.5929 37.6597 17.7466 43.4988 17.7466 47.3548C17.7466 57.9314 27.915 60.8555 40.7741 60.8555Z" fill="#F8BC48"/>
<path d="M28.2969 29.0264C28.4108 29.0968 28.5334 29.1722 28.5887 29.2937C28.8755 29.9254 26.7352 30.2078 25.9575 30.8394C24.3306 32.1598 22.6998 33.6762 21.5999 35.3412C21.5914 35.354 19.4948 38.3462 19.9236 37.9453C20.2915 37.6012 20.3759 37.0925 20.2752 36.6282L18.7598 29.6374L17.4253 25.6201C17.386 25.5018 17.3575 25.3797 17.3495 25.2554C17.2431 23.5991 18.3039 22.4218 20.8949 24.2541L24.0391 26.3998L28.2969 29.0264Z" fill="#F8BC48"/>
<path d="M54.4766 28.7755C54.356 28.8477 54.2289 28.9267 54.1622 29.0597C53.8176 29.7421 56.3052 30.2101 57.0803 30.8394C58.7073 32.1598 60.338 33.6758 61.4377 35.3412C61.4463 35.354 63.5427 38.3462 63.1141 37.9453C62.7461 37.6012 62.662 37.0925 62.7626 36.6282L64.2781 29.6374L65.6003 25.6567C65.6478 25.5141 65.6826 25.366 65.6908 25.2143C65.7772 23.5799 64.7123 22.4374 62.1429 24.2541L58.9985 26.3998L54.4766 28.7755Z" fill="#F8BC48"/>
<path d="M42.6147 48.8538L41.3706 49.9671L40.468 49.2317L39.6747 48.474L38.8503 47.5096C38.6916 47.3236 38.5801 47.0942 38.5272 46.8442C38.3415 45.9662 38.9132 45.1148 39.7187 45.07L41.3706 44.9781L42.8358 45.0942C43.6678 45.16 44.2291 46.0746 43.985 46.9671C43.9384 47.1381 43.8639 47.298 43.7652 47.4388L43.3749 47.9955C43.1518 48.3136 42.8968 48.6015 42.6147 48.8538Z" fill="#F8BC48"/>
<path d="M54.3436 46.6656C56.1288 46.0189 67.7675 43.018 75.0544 44.2232" stroke="#F4F4F4" stroke-width="0.902116" stroke-linecap="round"/>
<path d="M54.1567 50.7807C55.94 50.1385 64.0921 52.6403 71.1619 58.35" stroke="#F4F4F4" stroke-width="0.902116" stroke-linecap="round"/>
<path d="M54.2303 48.8725C56.01 48.2249 68.1985 48.1394 75.1769 51.4671" stroke="#F4F4F4" stroke-width="0.902116" stroke-linecap="round"/>
<path d="M27.6457 46.7515C25.8849 46.0271 14.3617 42.5171 7.03778 43.401" stroke="#F4F4F4" stroke-width="0.902116" stroke-linecap="round"/>
<path d="M27.6859 50.8721C25.9269 50.1522 17.6923 52.2934 10.425 57.6878" stroke="#F4F4F4" stroke-width="0.902116" stroke-linecap="round"/>
<path d="M27.6805 48.9617C25.9251 48.2368 13.7489 47.6157 6.6577 50.634" stroke="#F4F4F4" stroke-width="0.902116" stroke-linecap="round"/>
<path fill-rule="evenodd" clip-rule="evenodd" d="M41.3792 44.076L42.8918 44.1944C44.1651 44.2944 45.0234 45.6774 44.6504 47.0275C44.5791 47.2862 44.4649 47.5284 44.3136 47.7414L43.9215 48.2939C43.6651 48.6554 43.3721 48.9827 43.0476 49.2697L42.1329 50.0791L42.3723 51.2317C42.422 51.4708 42.4716 51.6741 42.5381 51.8574C42.602 52.0334 42.6892 52.2482 42.793 52.4465C42.9018 52.6545 43.0033 52.7952 43.0819 52.867C43.1528 52.9314 43.2853 53.0155 43.4535 53.1005C43.6994 53.2248 43.9804 53.3021 44.3168 53.3752L45.075 53.5406L45.2418 53.5544C45.5924 53.5836 45.9438 53.5772 46.293 53.5356L46.4996 53.5105C46.7807 53.4771 47.0576 53.409 47.3254 53.3085L47.591 53.2088C47.8437 53.1138 48.0795 52.9703 48.287 52.7852C48.4712 52.6211 48.6307 52.4259 48.7605 52.2075L48.8181 52.1111C48.9753 51.846 49.0969 51.5567 49.1787 51.2527L49.3839 50.4895C49.4913 50.0901 49.8716 49.8629 50.2326 49.9817C50.5937 50.1006 50.7993 50.5206 50.6919 50.92L50.4867 51.6833C50.367 52.128 50.1892 52.5512 49.9589 52.9392L49.9013 53.0361C49.6938 53.3857 49.4378 53.6974 49.1435 53.9597C48.8113 54.2564 48.4342 54.4858 48.0302 54.6375L47.7642 54.7376C47.4018 54.8738 47.027 54.9657 46.6468 55.0109L46.4402 55.036C46.0083 55.0877 45.5727 55.0955 45.1395 55.0594L44.8908 55.0388L44.0526 54.856C43.6957 54.7778 43.2848 54.6741 42.8874 54.4739C42.688 54.3734 42.4245 54.2234 42.2132 54.0306C41.9525 53.7925 41.754 53.4739 41.6118 53.202C41.4646 52.9205 41.3501 52.6353 41.2719 52.42C41.2455 52.3469 41.2213 52.2742 41.1993 52.202C41.197 52.2075 41.1948 52.2134 41.1926 52.2189C41.1114 52.4287 40.9492 52.8204 40.7242 53.2212C40.5095 53.6033 40.1902 54.0809 39.7703 54.3743C39.4993 54.5639 39.1738 54.685 38.9144 54.7632C38.6442 54.845 38.3908 54.8957 38.234 54.9227C38.1083 54.9446 37.9873 54.9574 37.8812 54.967L37.1945 55.0297C36.7378 55.0712 36.2785 55.0616 35.8237 55.0004L35.512 54.9588C34.9576 54.8843 34.4187 54.7061 33.9183 54.4323L33.771 54.3514C33.3144 54.1014 32.9045 53.7586 32.5625 53.3409C32.228 52.9323 31.9643 52.4593 31.7846 51.9456L31.4613 51.0215C31.3254 50.6326 31.5001 50.1956 31.8516 50.0453C32.203 49.8949 32.5981 50.0882 32.734 50.4767L33.0572 51.4008C33.1766 51.7422 33.3518 52.0567 33.5739 52.3277C33.801 52.6051 34.0733 52.8327 34.3765 52.9991L34.5238 53.0795C34.8857 53.2779 35.2755 53.4067 35.6764 53.4607L35.9881 53.5023C36.3512 53.5512 36.7178 53.5589 37.0824 53.5256L37.7691 53.463C37.8655 53.4543 37.9465 53.4451 38.0216 53.4323C38.1499 53.4099 38.3503 53.3693 38.5552 53.3076C38.771 53.2422 38.9419 53.1682 39.0411 53.0987C39.1936 52.9922 39.3801 52.7536 39.5651 52.4246C39.7399 52.1133 39.8713 51.798 39.938 51.6252C39.9595 51.5699 39.9764 51.5242 39.9951 51.4735C40.0096 51.4342 40.0252 51.3921 40.0449 51.34L40.5346 50.0448L40.0424 49.6486L39.1993 48.8524L38.3475 47.8671C38.1042 47.5855 37.9331 47.2377 37.8521 46.8584C37.5674 45.528 38.4439 44.2378 39.6788 44.1697L41.3792 44.076ZM41.3526 48.8369L42.1954 48.091C42.4376 47.8767 42.6566 47.6321 42.8481 47.3625L43.24 46.8095C43.2876 46.7432 43.3232 46.6674 43.3456 46.5865C43.4622 46.1642 43.1934 45.7314 42.7953 45.6998L41.3648 45.5878L39.7467 45.677C39.3636 45.698 39.0917 46.0983 39.18 46.511C39.2051 46.6285 39.2582 46.7368 39.3337 46.8241L40.1379 47.7542L40.8883 48.4626L41.3526 48.8369Z" fill="#FDFDFD"/>
<path d="M35.3845 39.6153C35.3845 41.1606 33.8093 42.8132 31.8663 42.8132C29.9232 42.8132 28.348 41.1606 28.348 39.6153C28.348 38.0701 29.9232 36.3179 31.8663 36.3179C33.8093 36.3179 35.3845 38.0701 35.3845 39.6153Z" fill="#F4F4F4"/>
<path d="M45.7482 39.5312C45.7482 41.1025 47.3442 42.783 49.3126 42.783C51.2811 42.783 52.877 41.1025 52.877 39.5312C52.877 37.9604 51.2811 36.1785 49.3126 36.1785C47.3442 36.1785 45.7482 37.9604 45.7482 39.5312Z" fill="#F4F4F4"/>
<path d="M32.2271 41.7302C33.373 41.7302 34.302 40.6397 34.302 39.2945C34.302 37.9493 33.373 36.8588 32.2271 36.8588C31.0812 36.8588 30.1522 37.9493 30.1522 39.2945C30.1522 40.6397 31.0812 41.7302 32.2271 41.7302Z" fill="#F8BC48"/>
<path d="M48.9473 41.767C47.7863 41.767 46.8452 40.6298 46.8452 39.2269C46.8452 37.824 47.7863 36.6867 48.9473 36.6867C50.1082 36.6867 51.0493 37.824 51.0493 39.2269C51.0493 40.6298 50.1082 41.767 48.9473 41.767Z" fill="#F8BC48"/>
</svg>
